#define move_width 16
#define move_height 16
static unsigned char move_bits[] = {
   0x80, 0x00, 0xc0, 0x01, 0xa0, 0x02, 0x80, 0x00, 0x80, 0x00, 0x84, 0x20,
   0x82, 0x40, 0xff, 0xff, 0x82, 0x40, 0x84, 0x20, 0x80, 0x00, 0x80, 0x00,
   0x80, 0x00, 0xa0, 0x02, 0xc0, 0x01, 0x80, 0x00};
