/* XPM */
static char * reddot10_xpm[] = {
"10 10 23 1",
" 	c None",
".	c #0A0606",
"+	c #1C1212",
"@	c #231616",
"#	c #160E0E",
"$	c #9D6464",
"%	c #EC9797",
"&	c #211515",
"*	c #E49393",
"=	c #F9BEBE",
"-	c #F5A4A4",
";	c #F49C9C",
">	c #E39191",
",	c #120C0C",
"'	c #9E6565",
")	c #F8B8B8",
"!	c #FFE8E8",
"~	c #FDDBDB",
"{	c #DB8C8C",
"]	c #F6AAAA",
"^	c #FFE5E5",
"/	c #FAC2C2",
"(	c #241717",
"   .+@.   ",
"  #$%%$#  ",
" &*=-;;>& ",
",')!~;;;',",
"@{]^/;;;{(",
"@{;;;;;;{(",
",';;;;;;',",
" &>;;;;>& ",
"  #$%%$#  ",
"   .+@.   "};
