/* XPM */
static char *icon1[] = {
/* columns rows colors chars-per-pixel */
"32 32 6 1",
"  c black",
". c blue",
"X c cyan",
"o c #C0C0C0C0C0C0",
"O c gray100",
"+ c None",
/* pixels */
"++++++++++++++++++++++++++++++++",
"++++++++++++++++++++++++++++++++",
"++++++++++++++    ++++++++++++++",
"+++++++++++++      +++++++++++++",
"+++++++++++++      +++++++++++++",
"++++++++++++   .X   ++++++++++++",
"++++++++++++   X.   ++++++++++++",
"+++++++++++   X.X.   +++++++++++",
"+++++++++++   XX.X   +++++++++++",
"++++++++++   .X.X.X   ++++++++++",
"++++++++++   X.X.X.   ++++++++++",
"+++++++++   X.XXX.X.   +++++++++",
"++++++++   XXX.X.XXX.   ++++++++",
"++++++++   .X.X.X.X.X   ++++++++",
"+++++++   XX.X.X.X.X.X   +++++++",
"                                ",
"                                ",
"  OOoOOOOOOOOoOOOOoOOOOOOOOoOO  ",
"  oOOoOOOoOoOOOOoOOOoOoOOOoOOo  ",
"  OOOOOoOOOOOOoOOOOOOOOOoOOOOO  ",
"                                ",
"                                ",
"++++   X.XXX.XXX.XXX.XXX.   ++++",
"+++   X.X.X.X.X.X.X.X.X.XX   +++",
"+++   .XXX.XXX.XXX.XXX.X.X   +++",
"++   XXXX.XXX.XXX.XXX.XXX.X   ++",
"++   X.X.X.X.X.X.X.X.X.X.XX   ++",
"++   XX.XXX.XXX.XXX.XXX.XXX   ++",
"+                              +",
"+                              +",
"+                              +",
"++++++++++++++++++++++++++++++++"
};
