/* XPM */
static char * scale_xpm[] = {
/* width height ncolors cpp [x_hot y_hot] */
"32 32 3 1 0 0",
/* colors */
" 	s none	m none	c none",
".	s iconColor1	m black	c black",
"X	s iconColor2	m white	c white",
/* pixels */
"                                ",
"                                ",
"                                ",
"                                ",
"  ............................  ",
" .............................. ",
" ..XXXXXXXXXXXXXXXXXXXXXXXXXX.. ",
" ..XXXXXXXXXXXXXXXXXXXXXXXXXX.. ",
" ..XXXXXXXXXXXXXXXXXXXXXXXXXX.. ",
" ..XXXXXXXXXXXXXXXXXXXXXXXXXX.. ",
" ..XXXXXX..XXXXXXXXXXXXXXXXXX.. ",
" ..XXXXX...XXXXXXXXXXXXXXXXXX.. ",
" ..XXXX....XXXXXX..XXX..XXXXX.. ",
" ..XXXXXX..XX..XX..XXX..XXXXX.. ",
" ..XXXXXX..XX..XXX..X..XXXXXX.. ",
" ..XXXXXX..XXXXXXX..X..XXXXXX.. ",
" ..XXXXXX..XXXXXXXX...XXXXXXX.. ",
" ..XXXXXX..XXXXXXXX...XXXXXXX.. ",
" ..XXXXXX..XXXXXXX..X..XXXXXX.. ",
" ..XXXXXX..XX..XXX..X..XXXXXX.. ",
" ..XXXXXX..XX..XX..XXX..XXXXX.. ",
" ..XXXXXX..XXXXXX..XXX..XXXXX.. ",
" ..XXXXXXXXXXXXXXXXXXXXXXXXXX.. ",
" ..XXXXXXXXXXXXXXXXXXXXXXXXXX.. ",
" ..XXXXXXXXXXXXXXXXXXXXXXXXXX.. ",
" ..XXXXXXXXXXXXXXXXXXXXXXXXXX.. ",
" .............................. ",
"  ............................  ",
"                                ",
"                                ",
"                                ",
"                                "};
