/* XPM */
static char * greendot10_xpm[] = {
"10 10 22 1",
" 	c None",
".	c #116911",
"+	c #1C741C",
"@	c #207820",
"#	c #187018",
"$	c #69C069",
"%	c #98F098",
"&	c #1F761F",
"*	c #93EA93",
"=	c #B5F8B5",
"-	c #9FF49F",
";	c #9DF49D",
">	c #166E16",
",	c #69C169",
"'	c #B6F8B6",
")	c #E6FFE6",
"!	c #D7FDD7",
"~	c #8EE58E",
"{	c #AEF7AE",
"]	c #CDFBCD",
"^	c #217921",
"/	c #A2F5A2",
"   .+@.   ",
"  #$%%$#  ",
" &*=-;;*& ",
">,')!;;;,>",
"@~{)];;;~^",
"@~;/;;;;~^",
">,;;;;;;,>",
" &*;;;;*& ",
"  #$%%$#  ",
"   .+@.   "};
