/* XPM */
static char * wireframe_xpm[] = {
/* width height ncolors cpp [x_hot y_hot] */
"32 32 2 1 0 0",
/* colors */
" 	s none	m none	c none",
".	s iconColor1	m black	c black",
/* pixels */
"                                ",
"                                ",
"          ............          ",
"       ..................       ",
"     .....         .  .....     ",
"    ...            .     ...    ",
"    ..             .      ..    ",
"    ..             .      ..    ",
"    ...            .     ...    ",
"    .. ...            ... ..    ",
"    ..    ............    ..    ",
"    ..      .             ..    ",
"    ..    . . ........    ..    ",
"    .. ...  .      .  ... ..    ",
"    ...     .      .     ...    ",
"    ..      .      .      ..    ",
"    ..      .      .      ..    ",
"    ...     .      .     ...    ",
"    .. ...  .         ... ..    ",
"    ..    ............    ..    ",
"    ..      .             ..    ",
"    ..    . . ........    ..    ",
"    .. ...  .         ... ..    ",
"    ...     .            ...    ",
"    ..      .             ..    ",
"    ..      .             ..    ",
"    ...     .            ...    ",
"     ....   .         .....     ",
"       ..................       ",
"         .............          ",
"                                ",
"                                "};
