/* XPM */
static char * bluedot10_xpm[] = {
"10 10 22 1",
" 	c None",
".	c #0E1372",
"+	c #1A1E7D",
"@	c #1E2280",
"#	c #161A79",
"$	c #6A6CC4",
"%	c #9B9BF0",
"&	c #1C217F",
"*	c #9697EB",
"=	c #C3C2F8",
"-	c #A9A9F5",
";	c #A0A0F4",
">	c #9596EB",
",	c #131877",
"'	c #BAB9F7",
")	c #EEEBFE",
"!	c #E7E4FD",
"~	c #9091E6",
"{	c #ACABF5",
"]	c #EBE8FE",
"^	c #CAC8F9",
"/	c #1F2381",
"   .+@.   ",
"  #$%%$#  ",
" &*=-;;>& ",
",$')!;;;$,",
"@~{]^;;;~/",
"@~;;;;;;~/",
",$;;;;;;$,",
" &>;;;;>& ",
"  #$%%$#  ",
"   .+@.   "};
