/* XPM */
static char *dummy[]={
"32 32 4 1",
". c #000000",
"b c #808080",
"a c #c0c0c0",
"# c #ffffff",
"................................",
".#############################a.",
".#aaaaaaaaaaaaa..aaaaaaaaaaaaab.",
".#aaaaaaaaaaaa.##.aaaaaaaaaaaab.",
".#aaaaaaaaaaa.##a#.aaaaaaaaaaab.",
".#aaaaaaaaaa.##aaa#.aaaaaaaaaab.",
".#aaaaaaaaa.##aaaaa#.aaaaaaaaab.",
".#aaaaaaaa.##aaaaaaa#.aaaaaaaab.",
".#aaaaaaa.##aaaaaaaaa#.aaaaaaab.",
".#aaaaaa.##aaaaaaaaaaa#.aaaaaab.",
".#aaaaa.##aaaaaaaaaaaaa#.aaaaab.",
".#aaaa.##aaaaaaaaaaaaaaa#.aaaab.",
".#aaa.##aaaaaaaaaaaaaaaaa#.aaab.",
".#aa.##aaaaaaaaaaaaaaaaaaa#.aab.",
".#a.##aaaaaaaaaaaaaaaaaaaaa#.ab.",
".#.##bbbbbbbaaaaaaaaabbbbbbbb.b.",
".#.........#aaaaaaaaab........b.",
".#aaaaaaaa.#aaaaaaaaab.aaaaaaab.",
".#aaaaaaaa.#aaaaaaaaab.aaaaaaab.",
".#aaaaaaaa.#aaaaaaaaab.aaaaaaab.",
".#aaaaaaaa.#aaaaaaaaab.aaaaaaab.",
".#aaaaaaaa.#aaaaaaaaab.aaaaaaab.",
".#aaaaaaaa.#aaaaaaaaab.aaaaaaab.",
".#aaaaaaaa.#aaaaaaaaab.aaaaaaab.",
".#aaaaaaaa.#aaaaaaaaab.aaaaaaab.",
".#aaaaaaaa.#aaaaaaaaab.aaaaaaab.",
".#aaaaaaaa.#aaaaaaaaab.aaaaaaab.",
".#aaaaaaaa.bbbbbbbbbbb.aaaaaaab.",
".#aaaaaaaaa...........aaaaaaaab.",
".#aaaaaaaaaaaaaaaaaaaaaaaaaaaab.",
".abbbbbbbbbbbbbbbbbbbbbbbbbbbbb.",
"................................"};
