/* XPM */
static char * levels_xpm[] = {
/* width height ncolors cpp [x_hot y_hot] */
"32 32 3 1 0 0",
/* colors */
" 	s none	m none	c none",
".	s iconColor1	m black	c black",
"X	s iconColor2	m white	c white",
/* pixels */
"                                ",
"             .................. ",
"             .................. ",
"             ..XXXXXXXXXXXXXX.. ",
"      ..................XXXXX.. ",
"      ..................XXXXX.. ",
"      ..XXXXX.XXXXXXXX..XXXXX.. ",
"      ..XXXXX.XXXXXXXX..XXXXX.. ",
" .........XXX.XXXXXXXX..XXXXX.. ",
" ..........XX.XXXXXXXX..XXXXX.. ",
" ..XXX.XX...X.XXXXXXXX..XXXXX.. ",
" ..XXX.XX....XXXXXXXXX..XXXXX.. ",
" ..XXX.XX..X..XXXXXXXX..XXXXX.. ",
" ..XXX.XX..XX..XXXXXXX..XXXXX.. ",
" ..XXX.XX..XXX..XXXXXX..XXXXX.. ",
" ..XXX.XX..XXXX..XXXXX..XXXXX.. ",
" ..XXX.XX.........XXXX..XXXXX.. ",
" ..XXX.XX..........XXX..XXXXX.. ",
" ..XXX.XXXXXX.XXX..XXX..XXXXX.. ",
" ..XXX.XXXXXX.XXX..XXX..XXXXX.. ",
" ..XXX.XXXXXX.XXX..XXX..XXXXX.. ",
" ..XXX.XXXXXX.XXX..XXX..XXXXX.. ",
" ..XXX.XXXXXX.XXX..XXX......... ",
" ..XXX.XXXXXX.................. ",
" ..XXX.XXXXXXXXXX..XXX..        ",
" ..XXX.XXXXXXXXXX..XXX..        ",
" ..XXX.XXXXXXXXXX.......        ",
" ..XXX..................        ",
" ..XXXXXXXXXXXXXX..             ",
" ..................             ",
" ..................             ",
"                                "};
