/* XPM */
static char * grid_xpm[] = {
/* width height ncolors cpp [x_hot y_hot] */
"32 32 3 1 0 0",
/* colors */
" 	s none	m none	c none",
".	s iconColor1	m black	c black",
"X	s iconColor2	m white	c white",
/* pixels */
"                                ",
"                                ",
"                                ",
"                                ",
"  ...........................   ",
" .............................  ",
" ..XXXXXXXXXXXXXXXXXXXXXXXXX..  ",
" ..XXXXXXXXXXXXXXXXXXXXXXXXX..  ",
" ..XX.XXX.XXX.XXX.XXX.XXX.XX..  ",
" ..X...X...X...X...X...X...X..  ",
" ..XX.XXX.XXX.XXX.XXX.XXX.XX..  ",
" ..XXXXXXXXXXXXXXXXXXXXXXXXX..  ",
" ..XX.XXX.XXX.XXX.XXX.XXX.XX..  ",
" ..X...X...X...X...X...X...X..  ",
" ..XX.XXX.XXX.XXX.XXX.XXX.XX..  ",
" ..XXXXXXXXXXXXXXXXXXXXXXXXX..  ",
" ..XX.XXX.XXX.XXX.XXX.XXX.XX..  ",
" ..X...X...X...X...X...X...X..  ",
" ..XX.XXX.XXX.XXX.XXX.XXX.XX..  ",
" ..XXXXXXXXXXXXXXXXXXXXXXXXX..  ",
" ..XX.XXX.XXX.XXX.XXX.XXX.XX..  ",
" ..X...X...X...X...X...X...X..  ",
" ..XX.XXX.XXX.XXX.XXX.XXX.XX..  ",
" ..XXXXXXXXXXXXXXXXXXXXXXXXX..  ",
" ..XXXXXXXXXXXXXXXXXXXXXXXXX..  ",
" .............................  ",
"  ...........................   ",
"                                ",
"                                ",
"                                ",
"                                ",
"                                "};
