/* XPM */
static char * zoom_xpm[] = {
/* width height ncolors cpp [x_hot y_hot] */
"32 32 3 1 0 0",
/* colors */
" 	s none	m none	c none",
".	s iconColor1	m black	c black",
"X	s iconColor2	m white	c white",
/* pixels */
"                                ",
"                                ",
"                                ",
"                                ",
"          ....................  ",
"         ...................... ",
"         ..XXXXXXXXXXXXXXXXXX.. ",
"         ..XXXXXXXXXXXXXXXXXX.. ",
"         ..XXXXXXXXXXXXXXXXXX.. ",
"          X......XXXXXXXXXXXX.. ",
"         ..XXXXXX..XXXXXXXXXX.. ",
"        ...XXXXXXXX.XXXXXXXXX.. ",
"       ...XXXXXXXXXX.XXXXXXXX.. ",
"       .. .XXXXXXXXX.XXXXXXXX.. ",
"      ..  .XXXXXXXXXX.XXXXXXX.. ",
"      ..  .XXXXXXXXXX.XXXXXXX.. ",
"      ..  .XXXXXXXXXX.XXXXXXX.. ",
"      ..  .XXXXXXXXXX.XXXXXXX.. ",
"      ..  .XXXXXXXXXX.XXXXXXX.. ",
"      ..   ........X.X......... ",
"       ..           . ........  ",
"       ...         ..           ",
"      ..X..      ...            ",
"     ..X...........             ",
"    ..X..  ......               ",
"   ..X..                        ",
"  ..X..                         ",
" ..X..                          ",
" ....                           ",
"  ..                            ",
"                                ",
"                                "};
