/* XPM */
static char * views_xpm[] = {
/* width height ncolors cpp [x_hot y_hot] */
"32 32 3 1 0 0",
/* colors */
" 	s none	m none	c none",
".	s iconColor1	m black	c black",
"X	s iconColor2	m white	c white",
/* pixels */
"                                ",
"                                ",
"                                ",
"                                ",
"                                ",
"                                ",
"                                ",
"         .............          ",
"        ..............          ",
"       ..XXXXXXXXXX...          ",
"      ..XXXXXXXXXX.X..          ",
"     .............XX..          ",
"    ..XXXXXXXXXXX.XX..          ",
"   ..XXXXXXXXXXXX.XX..   .      ",
"  ..XXXXXXXXXXXXX.XX..  .       ",
" ..XXXXXXXXXXXXXX.XX.. ........ ",
" ..XXXXXXXXXXXXXX.XX..  .       ",
" ..XXXXXXXXXXXXXX.XX..   .      ",
" ..XXXX....XXXXXX.XX..          ",
" ..XXXXXX..XXXXXX.XX..          ",
" ..XXXXX.X.XXXXXX.X..           ",
" ..XXXX.XX.XXXXXX...            ",
" ....X.X..X........             ",
" ...X.X...........   ....       ",
"    .                ..         ",
"   .                 . .        ",
"  .                  .  .       ",
"                         .      ",
"                          .     ",
"                           .    ",
"                                ",
"                                "};
