/* XPM */
static char * print_xpm[] = {
/* width height ncolors cpp [x_hot y_hot] */
"32 32 3 1 0 0",
/* colors */
" 	s none	m none	c none",
".	s iconColor1	m black	c black",
"X	s iconColor2	m white	c white",
/* pixels */
"                                ",
"                                ",
"                                ",
"                                ",
"          ..............        ",
"         ...............        ",
"        ..X.XXXXXXXXXX..        ",
"       ..XX.XXXXXXXXXX..        ",
"      ..XXX.XXXXXXXXXX..        ",
"      ......XXXXXXXXXX..        ",
"      ..XXXXXXXXXXXXXX..        ",
"      ..XXXXXXXXXXXXXX..        ",
"      ..XXXXXX..XXXXXX..        ",
"      ..XXXXX.XX.XXXXX..        ",
"      ..XX..........XX..        ",
"      ..XXX.XXXXXX.XXX..        ",
"    ....XX.XXXXXXXX.XX......    ",
"   .....X............X.......   ",
"  ..XXX.XXXXXXXXXXXXXX.XXXXX..  ",
"  ..XXX.XXXXXXXXXXXXXX.XXXXX..  ",
"  ..XXX................XXXXX..  ",
"  ..XXXXXXXXXXXXXXXXXXXX...X..  ",
"  ..XXXXXXXXXXXXXXXXXXXXXXXX..  ",
"  ..XXXXXXXXXXXXXXXXXXXXXXXX..  ",
"  ..X......................X..  ",
"  ..XXXXXXXXXXXXXXXXXXXXXXXX..  ",
"  ..X......................X..  ",
"  ..XXXXXXXXXXXXXXXXXXXXXXXX..  ",
"  ............................  ",
"   ..........................   ",
"                                ",
"                                "};
