/* XPM */
static char * autozoom_xpm[] = {
/* width height ncolors cpp [x_hot y_hot] */
"32 32 3 1 -1 -1",
/* colors */
" 	s none	m none	c none",
".	s iconColor1	m black	c black",
"X	s iconColor2	m white	c white",
/* pixels */
"                                ",
"                                ",
"                                ",
"                                ",
"  ............................  ",
" .............................. ",
" ..XXXXXXXXXXXXXXXXXXXXXXXXXX.. ",
" ..XX.X.X.X.X.X.X.X.X.X.X.X.X.. ",
" ..X.XXXXXXXXXXXXXXXXXXXXXXXX.. ",
" ..XXXXXXXXXXXXXXXXXXX....X.X.. ",
" ..X.XXXXXXXXXXXXXXXXXXX..XXX.. ",
" ..XXXXXXXXXXXXXXXXXXXX.X.X.X.. ",
" ..X.XXXXXXXXXXXXXXXXX.XX.XXX.. ",
" ..XXXXXXXXXXXXXXXXXX.XXXXX.X.. ",
" ..X.XXXXXXXXXXXXXXX.XXXXXXXX.. ",
" ..XXXXXXXXXXXXXXXXXXXXXXXX.X.. ",
" ..X...............XXXXXXXXXX.. ",
" ..X.XXXXXXXXXXXXX.XXXXXXXX.X.. ",
" ..X.XXXXXXXXXXXXX.XXXXXXXXXX.. ",
" ..X.XXXXXXXXXXXXX.XXXXXXXX.X.. ",
" ..X.XXXXXXXXXXXXX.XXXXXXXXXX.. ",
" ..X.XXXXXXXXXXXXX.XXXXXXXX.X.. ",
" ..X.XXXXXXXXXXXXX.XXXXXXXXXX.. ",
" ..X.XXXXXXXXXXXXX.XXXXXXXX.X.. ",
" ..X...............X.X.X.X.XX.. ",
" ..XXXXXXXXXXXXXXXXXXXXXXXXXX.. ",
" .............................. ",
"  ............................  ",
"                                ",
"                                ",
"                                ",
"                                "};
