/* XPM */
static char * shade_xpm[] = {
/* width height ncolors cpp [x_hot y_hot] */
"32 32 3 1 0 0",
/* colors */
" 	s none	m none	c none",
".	s iconColor1	m black	c black",
"X	s iconColor2	m white	c white",
/* pixels */
"                                ",
"                                ",
"          ............          ",
"       ..................       ",
"     .....XXXXXXXXXXXX.....     ",
"    ...XXXXXXXXXXXXXXXXXX...    ",
"    ..XXXXXXXXXXXXXXXXXXXX..    ",
"    ..XXXXXXXXXXXXXXXXXXXX..    ",
"    ...XXXXXXXXXXXXXXXXXX...    ",
"    ..X...XXXXXXXXXXXX......    ",
"    ...XXX............X.X...    ",
"    ..X.XXXXXXXXXXX.XX.X....    ",
"    ...XXXXXXXXX.XXXX.X.X...    ",
"    ..X.XXXXXXXXXXX.XX.X....    ",
"    ...XXXXXXXXXXXXXX.X.X...    ",
"    ..X.XXXXXXXX.XX.XX.X....    ",
"    ...XXXXXXXXXXXXXX.X.X...    ",
"    ..X.XXXXXXXXXXX.XX.X....    ",
"    ...XXXXXXXXX.XXXX.X.X...    ",
"    ..X.XXXXXXXXXXX.XX.X....    ",
"    ...XXXXXXXXXXXXXX.X.X...    ",
"    ..X.XXXXXXXX.XX.XX.X....    ",
"    ...XXXXXXXXXXXXXX.X.X...    ",
"    ..X.XXXXXXXXXXX.XX.X....    ",
"    ...XXXXXXXXX.XXXX.X.X...    ",
"    ..X.XXXXXXXXXXX.XX.X....    ",
"    ...XXXXXXXXXXXXXX.X.X...    ",
"     ....XXXXXXX.XX.XX.....     ",
"       ..................       ",
"         .............          ",
"                                ",
"                                "};
