/* XPM */
static char * pan_xpm[] = {
/* width height ncolors cpp [x_hot y_hot] */
"32 32 3 1 -1 -1",
/* colors */
" 	s none	m none	c none",
".	s iconColor1	m black	c black",
"X	s iconColor2	m white	c white",
/* pixels */
"                                ",
"          . . . . . . . . . .   ",
"         .                    . ",
"                         ....   ",
"         .                 .. . ",
"                          . .   ",
"         .               .  . . ",
"                        .       ",
"         .             .      . ",
"                      .         ",
"         .                    . ",
"                                ",
"  ....................        . ",
" ......................         ",
" ..XXXXXXXXXXXXXXXXXX..       . ",
" ..XXXXXX.XXXXXXXXXXX..         ",
" ..XXXXXXXXXXXXXXXXXX..       . ",
" ..XXXXXX.XXXXXXXXXXX..         ",
" ..XXXXXXXXXXXXXXXXXX..       . ",
" ..XXXXXXX.X.X.X.X.X... . . .   ",
" ..XXXXXXXXXXXXXXXXXX..         ",
" ..XXXXXXXXXXXXXXXXXX..         ",
" ..XXXXXXXXXXXXXXXXXX..         ",
" ..XXXXXXXXXXXXXXXXXX..         ",
" ..XXXXXXXXXXXXXXXXXX..         ",
" ..XXXXXXXXXXXXXXXXXX..         ",
" ..XXXXXXXXXXXXXXXXXX..         ",
" ..XXXXXXXXXXXXXXXXXX..         ",
" ..XXXXXXXXXXXXXXXXXX..         ",
" ......................         ",
"  ....................          ",
"                                "};
